Coordinates
version=1
nRows=32
nColumns=12
inDegrees=yes

Units are S.I. units (second, meters, Newtons, ...)
Angles are in degrees

endheader
time	SC_y	SC_z	SC_x	AC_y	AC_z	AC_x	GH_y	GH_z	GH_yy	EL_x	PS_y
       0.0              -17.09          6.972          67.87          47.98         -1.437          4.233          -1.26         -17.74          149.7           67.8          23.65
   0.01841              -17.09          6.974          67.86          47.98         -1.439          4.233         -1.274         -17.73          149.7          67.81          23.66
   0.03683               -17.1          6.976          67.85          47.98         -1.441          4.233         -1.289         -17.71          149.6          67.81          23.67
   0.05524               -17.1          6.978          67.84          47.98         -1.443          4.234         -1.305          -17.7          149.6          67.81          23.67
   0.07365               -17.1           6.98          67.83          47.98         -1.445          4.234         -1.322         -17.68          149.6          67.82          23.68
   0.09207               -17.1          6.982          67.82          47.99         -1.448          4.234          -1.34         -17.66          149.6          67.82          23.69
    0.1105               -17.1          6.984          67.81          47.99         -1.451          4.235          -1.36         -17.64          149.6          67.83           23.7
    0.1289               -17.1          6.987           67.8          47.99         -1.454          4.235         -1.381         -17.61          149.6          67.83          23.71
    0.1473               -17.1          6.989          67.79          47.99         -1.457          4.236         -1.403         -17.59          149.5          67.84          23.72
    0.1657               -17.1          6.992          67.78          47.99          -1.46          4.236         -1.427         -17.56          149.5          67.84          23.73
    0.1841              -17.11          6.995          67.76          47.99         -1.464          4.237         -1.453         -17.54          149.5          67.85          23.74
    0.2025              -17.11          6.999          67.75           48.0         -1.467          4.238          -1.48         -17.51          149.5          67.85          23.75
     0.221              -17.11          7.002          67.73           48.0         -1.472          4.238          -1.51         -17.47          149.4          67.86          23.77
    0.2394              -17.11          7.006          67.71           48.0         -1.476          4.239         -1.542         -17.44          149.4          67.87          23.78
    0.2578              -17.11           7.01          67.69           48.0         -1.481           4.24         -1.577          -17.4          149.4          67.87           23.8
    0.2762              -17.12          7.015          67.67          48.01         -1.486          4.241         -1.615         -17.36          149.3          67.88          23.81
    0.2946              -17.12           7.02          67.65          48.01         -1.492          4.242         -1.656         -17.32          149.3          67.89          23.83
     0.313              -17.12          7.025          67.62          48.01         -1.498          4.243         -1.701         -17.27          149.3           67.9          23.85
    0.3314              -17.13          7.031           67.6          48.02         -1.505          4.244         -1.749         -17.21          149.2          67.91          23.87
    0.3499              -17.13          7.037          67.57          48.02         -1.512          4.245         -1.803         -17.16          149.2          67.92           23.9
    0.3683              -17.13          7.044          67.54          48.02          -1.52          4.246         -1.862         -17.09          149.1          67.94          23.92
    0.3867              -17.14          7.052           67.5          48.03         -1.529          4.248         -1.926         -17.02          149.0          67.95          23.95
    0.4051              -17.14          7.061          67.46          48.03         -1.539           4.25         -1.998         -16.94          149.0          67.96          23.98
    0.4235              -17.15           7.07          67.42          48.04          -1.55          4.251         -2.077         -16.86          148.9          67.98          24.02
    0.4419              -17.15          7.081          67.37          48.05         -1.563          4.253         -2.165         -16.76          148.8           68.0          24.06
    0.4603              -17.16          7.093          67.31          48.05         -1.576          4.256         -2.263         -16.66          148.7          68.02           24.1
    0.4787              -17.17          7.106          67.25          48.06         -1.592          4.258         -2.373         -16.54          148.6          68.05          24.15
    0.4972              -17.18           7.12          67.18          48.07         -1.609          4.261         -2.496          -16.4          148.5          68.07          24.21
    0.5156              -17.18          7.137          67.11          48.08         -1.628          4.264         -2.636         -16.25          148.4           68.1          24.27
     0.534              -17.19          7.156          67.02          48.09          -1.65          4.268         -2.795         -16.08          148.2          68.14          24.34
    0.5524              -17.21          7.178          66.92           48.1         -1.675          4.272         -2.976         -15.88          148.0          68.18          24.42
    0.5708              -17.22          7.203           66.8          48.12         -1.704          4.277         -3.183         -15.66          147.8          68.22          24.52
